<mxfile host="app.diagrams.net" modified="2024-05-09T11:22:21.721Z" agent="Mozilla/5.0 (Windows NT 10.0; Win64; x64) AppleWebKit/537.36 (KHTML, like Gecko) Chrome/124.0.0.0 Safari/537.36" etag="kkOEDCRejISyCF86MfHi" version="24.3.1" type="device">
  <diagram name="Page-1" id="e7e014a7-5840-1c2e-5031-d8a46d1fe8dd">
    <mxGraphModel dx="2314" dy="1106" grid="1" gridSize="10" guides="1" tooltips="1" connect="1" arrows="1" fold="1" page="1" pageScale="1" pageWidth="1169" pageHeight="826" background="none" math="0" shadow="0">
      <root>
        <mxCell id="0" />
        <mxCell id="1" parent="0" />
        <mxCell id="2" value="User" style="swimlane;whiteSpace=wrap;strokeColor=#000000;" parent="1" vertex="1">
          <mxGeometry x="305" y="188" width="280" height="450" as="geometry" />
        </mxCell>
        <mxCell id="5" value="" style="ellipse;shape=startState;fillColor=#000000;strokeColor=#000000;" parent="2" vertex="1">
          <mxGeometry x="125" y="40" width="30" height="30" as="geometry" />
        </mxCell>
        <mxCell id="PxKjcnyhle11vZpKr1Y--41" value="Request report" style="rounded=1;whiteSpace=wrap;html=1;arcSize=40;fontColor=#000000;fillColor=#FFFFFF;strokeColor=#000000;shadow=0;" vertex="1" parent="2">
          <mxGeometry x="80" y="110" width="120" height="40" as="geometry" />
        </mxCell>
        <mxCell id="PxKjcnyhle11vZpKr1Y--42" value="" style="endArrow=classic;html=1;rounded=0;entryX=0.5;entryY=0;entryDx=0;entryDy=0;exitX=0.5;exitY=1;exitDx=0;exitDy=0;" edge="1" parent="2" target="PxKjcnyhle11vZpKr1Y--41" source="5">
          <mxGeometry width="50" height="50" relative="1" as="geometry">
            <mxPoint x="165.5" y="72" as="sourcePoint" />
            <mxPoint x="95.5" y="42" as="targetPoint" />
          </mxGeometry>
        </mxCell>
        <mxCell id="PxKjcnyhle11vZpKr1Y--43" value="Select portfolio" style="rounded=1;whiteSpace=wrap;html=1;arcSize=40;fontColor=#000000;fillColor=#FFFFFF;strokeColor=#000000;shadow=0;" vertex="1" parent="2">
          <mxGeometry x="80" y="190" width="120" height="40" as="geometry" />
        </mxCell>
        <mxCell id="PxKjcnyhle11vZpKr1Y--44" value="" style="endArrow=classic;html=1;rounded=0;exitX=0.5;exitY=1;exitDx=0;exitDy=0;entryX=0.5;entryY=0;entryDx=0;entryDy=0;" edge="1" parent="2" target="PxKjcnyhle11vZpKr1Y--43" source="PxKjcnyhle11vZpKr1Y--41">
          <mxGeometry width="50" height="50" relative="1" as="geometry">
            <mxPoint x="325.5" y="234" as="sourcePoint" />
            <mxPoint x="281" y="206" as="targetPoint" />
          </mxGeometry>
        </mxCell>
        <mxCell id="3" value="System" style="swimlane;whiteSpace=wrap;strokeColor=#000000;startSize=23;" parent="1" vertex="1">
          <mxGeometry x="585" y="188" width="280" height="450" as="geometry" />
        </mxCell>
        <mxCell id="38" value="" style="ellipse;shape=endState;fillColor=#000000;strokeColor=#000000;" parent="3" vertex="1">
          <mxGeometry x="125" y="390" width="30" height="30" as="geometry" />
        </mxCell>
        <mxCell id="PxKjcnyhle11vZpKr1Y--45" value="Display report" style="rounded=1;whiteSpace=wrap;html=1;arcSize=40;fontColor=#000000;fillColor=#FFFFFF;strokeColor=#000000;shadow=0;" vertex="1" parent="3">
          <mxGeometry x="80" y="283" width="120" height="40" as="geometry" />
        </mxCell>
        <mxCell id="PxKjcnyhle11vZpKr1Y--46" value="" style="endArrow=classic;html=1;rounded=0;exitX=0.5;exitY=1;exitDx=0;exitDy=0;entryX=0.5;entryY=0;entryDx=0;entryDy=0;" edge="1" parent="3" target="PxKjcnyhle11vZpKr1Y--45" source="PxKjcnyhle11vZpKr1Y--49">
          <mxGeometry width="50" height="50" relative="1" as="geometry">
            <mxPoint x="136" y="285" as="sourcePoint" />
            <mxPoint x="91.5" y="257" as="targetPoint" />
          </mxGeometry>
        </mxCell>
        <mxCell id="PxKjcnyhle11vZpKr1Y--49" value="Generate report" style="rounded=1;whiteSpace=wrap;html=1;arcSize=40;fontColor=#000000;fillColor=#FFFFFF;strokeColor=#000000;shadow=0;" vertex="1" parent="3">
          <mxGeometry x="80" y="190" width="120" height="40" as="geometry" />
        </mxCell>
        <mxCell id="PxKjcnyhle11vZpKr1Y--48" value="" style="endArrow=classic;html=1;rounded=0;entryX=0.5;entryY=0;entryDx=0;entryDy=0;exitX=0.5;exitY=1;exitDx=0;exitDy=0;" edge="1" parent="3" target="38" source="PxKjcnyhle11vZpKr1Y--45">
          <mxGeometry width="50" height="50" relative="1" as="geometry">
            <mxPoint x="-134.5" y="322" as="sourcePoint" />
            <mxPoint x="-59" y="304" as="targetPoint" />
          </mxGeometry>
        </mxCell>
        <mxCell id="PxKjcnyhle11vZpKr1Y--50" value="" style="endArrow=classic;html=1;rounded=0;exitX=1;exitY=0.5;exitDx=0;exitDy=0;entryX=0;entryY=0.5;entryDx=0;entryDy=0;" edge="1" parent="1" target="PxKjcnyhle11vZpKr1Y--49" source="PxKjcnyhle11vZpKr1Y--43">
          <mxGeometry width="50" height="50" relative="1" as="geometry">
            <mxPoint x="520" y="470" as="sourcePoint" />
            <mxPoint x="475.5" y="442" as="targetPoint" />
          </mxGeometry>
        </mxCell>
      </root>
    </mxGraphModel>
  </diagram>
</mxfile>
